<?xml version="1.0" encoding="utf-8"?>
<!-- Generator: Adobe Illustrator 18.1.1, SVG Export Plug-In . SVG Version: 6.00 Build 0)  -->
<svg version="1.1" id="Layer_1" xmlns="http://www.w3.org/2000/svg" xmlns:xlink="http://www.w3.org/1999/xlink" x="0px" y="0px"
	 viewBox="1.273 349.118 279.284 100.124" enable-background="new 1.273 349.118 279.284 100.124" xml:space="preserve">
<path id="c" fill="#F58025" d="M39.067,414.322c-3.579-4.072-7.957-6.252-13.329-6.252c-8.748,0-15.508,7.74-15.508,16.299
	c0,9.553,6.658,16.508,16.11,16.508c5.169,0,9.35-2.389,12.726-6.148v11.426c-4.072,2.191-8.154,3.094-12.829,3.094
	c-13.727,0-24.964-10.533-24.964-24.473c0-14.408,11.135-25.06,25.467-25.06c4.167,0,8.748,0.995,12.327,3.086V414.322
	L39.067,414.322z"/>
<path id="o" fill="#F58025" d="M63.43,424.479c0,8.764,7.07,16.209,15.919,16.209c8.856,0,15.905-7.445,15.905-16.209
	c0-8.865-7.049-16.217-15.905-16.217C70.499,408.262,63.43,415.613,63.43,424.479 M104.22,424.479
	c0,14.041-10.947,24.764-24.871,24.764c-13.924,0-24.857-10.74-24.857-24.764c0-14.031,10.933-24.768,24.857-24.768
	C93.264,399.71,104.22,410.447,104.22,424.479"/>
<path id="v" fill="#F58025" d="M138.23,430.141l13.422-29.055H161.7l-23.47,48.156l-23.369-48.14h10.041L138.23,430.141z"/>
<path id="e" fill="#F58025" d="M208.443,419.107c-1.083-6.971-5.663-11.631-12.836-11.631c-6.954,0-12.13,4.943-13.24,11.631
	H208.443z M181.895,425.857c0.08,7.979,5.468,15.426,14.018,15.426c6.867,0,10.548-3.484,13.931-9.059l7.558,4.281
	c-4.385,8.059-12.531,12.736-21.582,12.736c-14.229,0-22.869-10.746-22.869-24.475c0-14.32,7.653-25.053,22.673-25.053
	c14.823,0,21.793,10.941,21.793,24.764v1.387L181.895,425.857L181.895,425.857z"/>
<path id="o_1_" fill="#F58025" d="M239.774,424.479c0,8.764,7.064,16.209,15.912,16.209c8.865,0,15.915-7.445,15.915-16.209
	c0-8.865-7.05-16.217-15.915-16.217C246.838,408.262,239.774,415.613,239.774,424.479 M280.558,424.479
	c0,14.041-10.939,24.764-24.871,24.764c-13.915,0-24.855-10.74-24.855-24.764c0-14.031,10.94-24.768,24.855-24.768
	C269.618,399.71,280.558,410.447,280.558,424.479"/>
<path id="_x2D_" fill="#F58025" d="M214.419,371.644l-38.607-22.525v44.406L214.419,371.644z"/>
</svg>
